<svg width="460" height="460" viewBox="0 0 460 460" fill="none" xmlns="http://www.w3.org/2000/svg">
<rect width="460" height="460" fill="#FF2442"/>
<path d="M317.402 164H340.676V172.335C340.676 173 341.001 173.31 341.637 173.295C355.439 172.881 369.345 173.325 376.468 187.482C380.709 195.875 379.837 208.643 379.6 218.662C379.586 219.253 379.866 219.579 380.428 219.638C382.053 219.785 383.635 219.933 385.172 220.125C412.614 223.421 407.19 249.296 407.279 269.63C407.323 276.723 406.525 281.91 404.914 285.221C401.516 292.077 395.427 296.008 386.649 296.984H369.537L360.789 276.679C360.745 276.58 360.726 276.471 360.734 276.363C360.741 276.255 360.775 276.15 360.833 276.058C360.89 275.969 360.968 275.894 361.061 275.843C361.154 275.791 361.259 275.764 361.365 275.763L379.926 275.748C380.96 275.748 381.935 275.305 382.645 274.536C383.362 273.762 383.754 272.74 383.738 271.684C383.649 265.478 383.605 259.286 383.635 253.094C383.635 247.523 381.004 244.671 375.699 244.523C369.699 244.375 358.335 244.375 341.592 244.553C341.001 244.553 340.706 244.878 340.706 245.513L340.617 296.984H317.372L317.298 245.292C317.302 245.17 317.282 245.049 317.238 244.935C317.195 244.822 317.129 244.718 317.046 244.63C316.962 244.542 316.861 244.471 316.75 244.422C316.638 244.374 316.518 244.348 316.397 244.346H294.674C294.404 244.338 294.149 244.226 293.961 244.033C293.774 243.839 293.669 243.581 293.669 243.311L293.698 220.82C293.698 220.066 294.053 219.682 294.762 219.682L316.234 219.726C316.373 219.725 316.51 219.696 316.637 219.64C316.764 219.584 316.878 219.503 316.973 219.401C317.165 219.192 317.271 218.917 317.269 218.633V199.185C317.277 198.847 317.151 198.519 316.918 198.273C316.686 198.026 316.366 197.882 316.027 197.87L302.772 197.929C302.077 197.929 301.737 197.56 301.737 196.836L301.693 174.226C301.693 173.561 301.989 173.236 302.654 173.236H316.382C316.973 173.236 317.269 172.94 317.269 172.305L317.416 164H317.402ZM341.504 219.756L355.941 219.726C356.178 219.726 356.4 219.623 356.562 219.446C356.727 219.269 356.817 219.036 356.813 218.795L356.74 200.722C356.74 199.304 355.705 198.151 354.449 198.151L342.863 198.181C342.553 198.185 342.248 198.256 341.967 198.389C341.687 198.521 341.438 198.712 341.238 198.949C340.797 199.463 340.561 200.12 340.573 200.796L340.647 218.869C340.647 219.372 341.046 219.756 341.504 219.756ZM192.161 221.381C186.546 221.485 176.394 223.051 174.177 215.825C172.832 211.51 175.877 205.495 177.724 201.284C182.985 189.299 188.142 177.27 193.211 165.197C193.418 164.709 193.772 164.458 194.275 164.458H216.485C216.678 164.458 216.84 164.562 216.929 164.724C216.98 164.802 217.012 164.891 217.022 164.983C217.032 165.075 217.021 165.169 216.988 165.256L204.131 195.299C203.836 195.993 203.91 196.777 204.294 197.427C204.48 197.731 204.74 197.983 205.05 198.159C205.361 198.335 205.711 198.429 206.067 198.432H225.101C225.337 198.432 225.544 198.55 225.677 198.742C225.795 198.949 225.825 199.185 225.721 199.407C220.224 212.219 214.742 224.943 209.274 237.578C208.727 238.834 208.491 239.765 208.579 240.356C208.771 241.641 209.496 242.292 210.737 242.306L222.781 242.38C223.475 242.395 223.697 242.735 223.416 243.415L215.628 261.739C215.52 262.042 215.319 262.304 215.054 262.487C214.789 262.67 214.473 262.765 214.151 262.759C201.915 262.906 193.358 262.906 188.482 262.685C180.413 262.315 178.433 255.252 181.566 247.966L192.634 222.135C192.667 222.054 192.679 221.966 192.672 221.879C192.664 221.791 192.636 221.707 192.59 221.633C192.545 221.555 192.481 221.491 192.403 221.447C192.325 221.402 192.236 221.38 192.147 221.381H192.161ZM99.8754 296.984H91.1567L82.6152 276.93C82.5727 276.833 82.5546 276.727 82.5623 276.622C82.57 276.516 82.6034 276.414 82.6596 276.324C82.7106 276.236 82.7838 276.162 82.8718 276.11C82.9599 276.059 83.0598 276.031 83.162 276.029L95.2205 275.999C95.5912 275.992 95.9567 275.911 96.2962 275.762C96.6357 275.613 96.9426 275.399 97.1992 275.131C97.4558 274.863 97.6572 274.548 97.7919 274.202C97.9265 273.857 97.9918 273.488 97.9839 273.118L98.309 166.763C98.3051 166.626 98.3285 166.49 98.3778 166.362C98.4271 166.234 98.5013 166.117 98.5962 166.018C98.6911 165.919 98.8047 165.84 98.9304 165.785C99.0562 165.73 99.1916 165.701 99.3287 165.699H120.076C121.052 165.699 121.539 166.217 121.554 167.236C121.643 203.249 121.643 238.642 121.554 273.428C121.495 287.703 114.875 297.456 99.8754 296.984Z" fill="white"/>
<path d="M294.495 296.983H215.79L226.341 273.192C226.446 272.916 226.636 272.68 226.883 272.519C227.129 272.357 227.421 272.277 227.715 272.29L246.985 272.32C247.665 272.32 248.02 271.98 248.02 271.285V199.097C248.02 198.476 247.724 198.166 247.133 198.166L234.351 198.151C233.774 198.151 233.316 197.648 233.316 197.043V173.886C233.316 173.531 233.582 173.236 233.922 173.236H286.028C286.678 173.236 286.988 173.576 286.988 174.256L287.018 197.161C287.018 197.826 286.693 198.166 286.043 198.166H273.157C272.565 198.166 272.27 198.476 272.27 199.097V271.241C272.27 271.935 272.61 272.275 273.26 272.275L293.683 272.32C294.244 272.32 294.525 272.615 294.525 273.206L294.495 296.998V296.983ZM388.23 175.482C404.308 164.428 415.627 192.609 398.012 197.442C395.146 198.24 390.579 198.284 384.328 197.589C383.767 197.53 383.501 197.22 383.501 196.629C383.412 189.979 382.097 179.694 388.23 175.497V175.482ZM166.285 258.34L155.645 283.122C154.685 285.339 153.635 285.383 152.468 283.299C144.636 269.142 141.976 257.586 140.439 239.986C139.257 226.317 138.237 212.648 137.35 198.949C137.321 198.328 137.602 198.018 138.193 198.018L159.753 198.033C160.359 198.033 160.699 198.358 160.743 198.978C161.852 214.909 163.019 230.795 164.231 246.636C164.541 250.715 165.236 254.099 166.3 256.788C166.405 257.034 166.459 257.299 166.456 257.566C166.453 257.833 166.395 258.097 166.285 258.34ZM53 257.424V256.404C54.0131 255.028 54.6728 253.425 54.9211 251.734C56.5171 234.149 57.8175 216.579 58.8371 198.993C58.8815 198.446 59.1475 198.166 59.6647 198.166H81.6833C81.8754 198.166 82.0675 198.254 82.2153 198.417C82.3483 198.565 82.4222 198.772 82.4074 198.978C81.2464 215.18 79.9509 231.372 78.5209 247.552C77.4865 259.301 73.733 275.024 65.8861 284.556C65.3836 285.161 64.9551 285.102 64.63 284.363L53 257.424ZM203.17 296.983H171.28L167.216 295.373C166.64 295.151 166.477 294.752 166.743 294.176L176.748 271.27C177.043 270.605 177.516 270.354 178.196 270.532C189.131 273.502 201.796 272.275 212.982 272.32C213.677 272.334 213.869 272.674 213.573 273.325L203.17 296.969V296.983Z" fill="white"/>
</svg>
